<svg xmlns="http://www.w3.org/2000/svg" width="182" height="125" fill="none" viewBox="0 0 182 125">
    <path fill="#232B30" fill-rule="evenodd"
        d="M104.639 53.747c.861 1.003 3.915 3.225 3.915 3.225 1.473 1.111 2.155 3.082.539 5.125 0 0-5.568 5.805-6.861 8.206-.323.538-.826.753-1.222.108-.395-.645-1.544-2.58-.43-3.763 0 0 5.244-5.232 5.747-7.167.144-.645.251-1.506-.719-2.473-.969-.968-1.915-2.01-2.298-2.545-.539-.752-.755-1.684.179-2.76.137-.157.332-.365.568-.617 1.372-1.465 4.105-4.381 4.533-7.087.323-2.043-.288-3.046-.719-3.44-.43-.395-2.047-1.362-3.627 1.039-1.444 2.193-1.761 4.694-1.958 6.25l-.054.416c-.323 2.4-.359 13.152-.359 13.761v.097c.005.525.014 1.562-.863 2.268-.933.753-2.981 1.9-2.298-.036.18-.824.359-5.196.359-6.809 0-1.612.038-3.082.072-4.372.17-6.479.746-7.54 1.964-9.788l.191-.354c2.083-3.87 6.257-5.154 8.226-4.515 1.437.466 3.436 3.35 2.155 6.666-1.317 3.408-4.644 5.621-6.801 7.056l-.06.04c-.359.286-.758.795-.179 1.469Zm-37.65 16.157 10.393 5.063c1.077.502 1.006 1.004.431 2.007-.575 1.004-1.006 1.147-1.796.788l-8.765-4.228c-.359-.072-.61.071-.682.501v1.828c-.072.86-.252 2.15-2.946 2.688l.108-6.021c0-.717-.215-.932-.934-1.218l-3.017-1.434c-.647-.215-.862-.86 0-1.29l3.75-2.104c.147-.064.273-.28.278-.548l.175-12.435.014-.118c.057-.483.078-.668.812-1.1l1.15-.574c.718-.251 1.041.071 1.041.788l-.252 10.787c0 .502.226.815.827.502 1.58-.825 5.064-4.157 6.286-6.45 1.116-2.097 2.005-7.059-1.653-7.885-3.286-.742-6.144.598-7.743 1.347a17.51 17.51 0 0 1-.662.301c-1.365.574-8.693 3.943-13.507 8.386-.646.789-.933.86-1.077.072.01-.239.011-.48.014-.725.014-1.665.03-3.437 2.285-4.937 2.902-1.93 9.593-5.48 16.164-6.88 7.4-1.578 12.135 4.214 7.4 11.109-3.299 4.802-6.499 6.785-7.831 7.61l-.001.001c-.104.064-.196.121-.275.172-.259.186-.298.387-.302.585l-.028 2.795c-.005.197.114.498.342.617Zm63.795-19.78a1.4 1.4 0 1 1 0-2.799 1.4 1.4 0 0 1 0 2.8Zm0-2.99c-.886 0-1.599.712-1.599 1.587 0 .883.713 1.595 1.599 1.595a1.59 1.59 0 1 0 0-3.183Zm-.041 1.487h-.334v-.628h.509c.221 0 .463.033.463.308 0 .33-.321.325-.567.321h-.071Zm.86-.316c0-.15-.067-.309-.201-.384-.133-.079-.284-.087-.434-.087h-.777v1.779h.218v-.821h.4l.51.82h.259l-.539-.82c.317-.009.564-.138.564-.487ZM92.699 59.776c-1.218.702-1.781 2.015-1.302 2.844.48.83 1.929.968 3.147.266 1.22-.702 1.747-1.979 1.267-2.808-.48-.83-1.893-1.004-3.112-.302Zm-16.708 7.92.001-.003c.324-.538 1.042-1.792.539-2.079-.53-.302-1.688.896-2.084 1.649-.263.502-.79 1.935-.395 2.15.753.25 1.614-1.179 1.939-1.718Zm10.885-4.644c.36-.753.998-1.98 1.33-2.383.412-.502.897-.198.897.232l-.323 17.83c0 .394-.252.644-.539.644h-1.563c-.359 0-.556-.143-.556-.644 0 0 .215-11.002.215-11.469 0-.466-.43-.698-.718-.215-.418.704-1.257 1.9-2.012 1.9-.79 0-1.257-1.183-1.329-1.54-.072-.36-.395-.395-.61.035-1.186 2.078-2.192 2.688-2.982 2.723-.79.036-1.401-1.362-1.509-1.72-.108-.358-.323-.394-.538-.036-.14.23-.382.506-.681.845-.166.188-.349.395-.54.625-.54.644-2.372 2.186-3.413 1.326-1.117-.923-.52-3.214.215-4.445 1.222-2.042 2.228-2.58 3.27-2.544.974.213 1.148-.038 1.31-.272.029-.042.058-.084.09-.122.215-.25.755-.466 1.185-.466.611 0 .898.502.934 1.111.037.61.54 2.58 1.222 2.58 1.077 0 2.047-3.26 2.227-4.013.18-.753.79-.968 1.006-1.004.215-.036.646.072.646.789 0 .716.1 2.687.898 2.687.707 0 1.414-1.495 1.796-2.302v-.002l.072-.15Zm28.618-4.2c-.324.537-1.042 1.72-1.796 1.468-.396-.215.095-1.254.359-1.756.395-.752 1.553-1.968 2.083-1.666.434.247-.12 1.12-.489 1.701-.059.093-.113.178-.157.252Zm15.23-2.151-.006.005c-.145.127-.379.331-.892.102-.651-.26-.868-1.216-1.116-2.31-.094-.415-.192-.85-.321-1.273-.42-1.385-1.43-1.298-1.796-.664l-1.096 1.756-.028.052c-.208.38-.62 1.13-1.031 1.13-.386 0-.343-.422-.29-.943a8.33 8.33 0 0 0 .039-.49c.017-.483-.288-1.092-.791-1.092-.574 0-1.185.878-1.652 1.881-.058.123-.131.308-.218.528-.411 1.034-1.136 2.859-2.009 2.859-.647 0-.746-1.77-.785-2.474l-.006-.107c-.036-.609-.251-1.361-.862-1.361-.413 0-.682.215-.898.466a2.006 2.006 0 0 0-.079.098c-.159.205-.274.353-.926.26-1.042-.036-2.766.931-3.988 2.974-.735 1.23-1.619 3.809-.503 4.73 1.042.86 2.91-1.146 3.449-1.79.192-.23.375-.438.54-.625.3-.34.543-.615.681-.845.215-.359.431-.323.539.035.108.359.718 1.756 1.509 1.72.79-.035 1.437-.215 2.622-2.293.216-.43.611-.484.682-.125.008.038.016.083.024.133.071.417.201 1.175.874 1.175 1.214 0 2.579-2.765 3.046-3.71a8.34 8.34 0 0 1 .08-.16c.323-.646.844-.467 1.023.017.05.135.099.327.156.55.234.925.601 2.371 1.73 2.371 1.401 0 2.353-1.487 2.64-1.953.324-.466.155-1.06-.341-.627Z"
        class="Combined Shape" clip-rule="evenodd" />
</svg>
