<svg xmlns="http://www.w3.org/2000/svg" width="181" height="125" fill="none" viewBox="0 0 181 125">
    <path fill="#3A4850" fill-rule="evenodd"
        d="m89.393 45.289.119.05a.454.454 0 0 0 .077.03.35.35 0 0 1 .154.086l-.5-.771c-.808-1.311-1.616-1.774-2.04-1.774h-.038c-.154 0-.269.039-.308.154-.115.193 0 .54.231.887.37.518 1.342.93 2.305 1.338Zm.619.243c.808.347 1.423.656 1.731 1.041.021.021.03.031.035.029.003-.001.003-.008.003-.02 0 .03-.002.03-.038.03l-.038-.039c-.263-.338-.817-.566-1.45-.827l-.05-.021 1.23 1.967h.116l.153.424s-.461.038-.538-.193c-.02-.083-.064-.088-.105-.093-.035-.004-.07-.008-.087-.061-.039-.077.115-.077.192-.077h.038l-1.307-2.083-.088-.027a2.14 2.14 0 0 1-.336-.127l-.105-.043c-1.005-.41-2.025-.826-2.434-1.422-.269-.425-.346-.81-.23-1.08a.489.489 0 0 1 .461-.27h.039c.23 0 1.115.116 2.192 1.85v.04l.616 1.002Zm-10.964 2.275c.077.27.346 1.08 1.077 1.196l.039-.077c-.27-.232-.403-.705-.552-1.241-.3-1.068-.668-2.384-2.333-2.538-.808-.078-1.039.154-1.039.193 0 0 .115.154.23.154 1.657-.076 2.098 1.067 2.549 2.236l.03.077Zm-2.808-2.043c.039.038.077.23-.038.5-.258-.225-.543-.18-.674-.16a.455.455 0 0 1-.057.007c.077-.078.307-.193.307-.193s-.115-.039-.192-.232c-.038-.077-.115-.424-.077-.424.118.119.419.306.603.421l.128.08Zm-2.808 1.272c0-.077.077-.154.27-.27 0 0-.193-.308-.117-.655v-.193s.424.617.655.964c-.039 0-.087.01-.135.02-.048.009-.096.018-.134.018a.479.479 0 0 0-.116.02.463.463 0 0 1-.115.02c-.06.014-.113.029-.158.041a.859.859 0 0 1-.15.035Zm.654 1.427c-.039-.039-.039-.193.077-.347h-.231v-.039l-.077-.578.5-.077s0-.116-.038-.193c-.266 0-.55.073-.726.119-.079.02-.135.035-.16.035-.076.501.154.655.154.655.134.134.23.489.29.708.026.097.045.168.057.18.09.06.275.05.406.042a1.8 1.8 0 0 1 .094-.004c-.5-.038-.346-.501-.346-.501Zm12.31 2.622s0 .501-.424 1.196c-.5-.155-1.961-.81-2.769-1.273-.23-.771-.23-1.62-.192-1.89 0 0 1.77-.346 2.615.348.308.27.77.886.77 1.619Zm-3.77-1.89c0 .386.076 1.08.192 1.62-.435-.218-.699-.299-1.145-.436l-.086-.027v-1.04c.077 0 .5 0 1.039-.116Zm14.502 3.78v-2.623h-1.961c-.039 1.813 1.5 2.468 1.962 2.623ZM49.812 63.608a8.874 8.874 0 0 0-1.23-.607c-.846-.308-2.193-.733-3.924-.733-2.77 0-5.347.54-7.232 1.504-2.231 1.118-3.385 2.815-3.385 4.82 0 4.165 3.885 6.325 11.271 6.325 1.808 0 3.386-.463 4.694-1.389l2.23 1.196h.424v-4.782h-.423l-.039.039v.038c0 .039-.385 1.118-1.385 2.198-.923 1.003-2.615 2.198-5.385 2.198-1.847 0-3.347-.694-4.347-1.966-.77-1.003-1.231-2.391-1.231-3.78 0-3.74 2.885-5.745 5.578-5.745 1.846 0 3.5.578 4.808 1.697 1.116.925 1.731 2.005 1.962 2.737v.039h.462V62.5h-.423l-2.27 1.195a3.316 3.316 0 0 1-.155-.087Zm17.12 10.769c-2.04 0-5.463-1.196-5.463-5.746 0-3.972 2.731-5.746 5.463-5.746 3.654 0 5.809 2.16 5.809 5.746.038 3.856-1.886 5.746-5.81 5.746Zm8.501-10.026c-2.27-1.312-5.27-2.044-8.463-2.044-3.231 0-6.232.732-8.463 2.044-1.654 1.002-2.616 2.545-2.616 4.28 0 1.735.962 3.278 2.616 4.28 2.27 1.311 5.27 2.044 8.463 2.044 3.232 0 6.232-.733 8.463-2.043 1.654-1.003 2.616-2.546 2.616-4.281 0-1.735-.962-3.278-2.616-4.28Zm71.129-1.273v-.579h-9.233v.579h1.962v4.974h-7.732v-4.974h2v-.579h-9.271v.579h2.001v11.144h-2.001v.579h9.271v-.579h-2v-5.591h7.732v5.591h-1.962v.579h9.233v-.579h-2.001V63.078h2.001Zm-60.127 3.239-3.577 4.435h7.693l-4.116-4.435Zm2.578-4.01h.307l10.849 11.915h2.577v.618h-11.58v-.58h2.539l-2.616-2.891h-8.694l-2.346 2.853h2.615v.579h-5.578v-.579h2.232l9.694-11.915Zm29.081 1.301c.068.04.119.07.155.087l2.269-1.195h.424v4.897h-.462v-.039c-.231-.732-.846-1.812-1.962-2.737-1.308-1.119-2.962-1.697-4.809-1.697-2.692 0-5.577 2.005-5.577 5.746 0 1.388.461 2.776 1.231 3.779 1 1.272 2.5 1.966 4.346 1.966 2.77 0 4.463-1.195 5.386-2.198 1-1.08 1.385-2.16 1.385-2.198v-.038l.038-.039h.424v4.782h-.424l-2.231-1.196c-1.308.926-2.885 1.389-4.693 1.389-7.386 0-11.271-2.16-11.271-6.325 0-2.005 1.154-3.702 3.385-4.82 1.885-.964 4.462-1.504 7.232-1.504 1.731 0 3.078.425 3.924.733a8.953 8.953 0 0 1 1.23.607Zm-17.502-10.65a.433.433 0 0 0-.039.017h.039v-.017Zm0 0a.907.907 0 0 1 .049-.016.628.628 0 0 0 .181-.083c.693-1.812 1.693-2.468 1.77-2.507h-2v2.606Zm-19.658-1.757.27-.54a1.26 1.26 0 0 0-.539 0l.27.54Zm.27-.887V49.31h-.54v1.003h.54Zm2.808 2.853c-.193-.308-.578-.732-1.27-.385 0 0-.038.617.27.848.115.116.461.54.346.849-.028.11-.413.46-.7.72-.112.102-.208.19-.262.244-.385.308-.308.5-.308.5.032.142.006.327-.02.516-.039.276-.078.558.059.719l.038.039c.23 0 .577-.54.577-.656 0-.045-.08-.17-.145-.273-.046-.073-.086-.135-.086-.151a.125.125 0 0 1 .058-.06.262.262 0 0 0 .096-.095c.039-.038.039-.154.039-.193.038-.23 1.038-1.04 1.23-1.156.308-.193.078-.425.078-.425-.385-.462-.039-1.002 0-1.04Zm-5.848-1.388c.885-.887 2.155-1.08 2.155-1.08l.461.81v1.427a5.111 5.111 0 0 1-1.346-.154c0 .013-.03.146-.07.323-.08.354-.2.885-.2.988.039.193 0 .81-.038.925-.115.386-.077 1.234.077 1.659.038.115-.038.231-.115.308-.03.015-.06.018-.088.022-.044.004-.081.008-.105.055-.052.053-.033.123-.016.188.009.03.016.058.016.082.039.27-.923.463-.884.27.03-.24.198-.432.326-.579.037-.042.07-.08.097-.115.013-.026.025-.056.038-.086.026-.06.051-.12.077-.145.154-.155.154-1.389 0-1.736 0 0-.115-.578-.077-.733.029-.173-.072-.476-.156-.73a5.932 5.932 0 0 1-.075-.233c.039 0 1.116-.54.654-1.157-.076.655-1.154 1.08-2.654 1.658-.423.154-.346 1.85 0 2.005a.212.212 0 0 1 .115.193c-.038.154-.038.193.231.154.539-.115.308.81.154.887-.23 0-.73-.617-.846-.771 0 0-.27-.193-.27-.54 0-.197-.041-.553-.083-.912-.057-.488-.115-.982-.07-1.093.077-.181.552-.57.926-.877.184-.15.344-.281.42-.357.039-.039.077-.077.077-.155 0-.099-.052-.198-.112-.313-.103-.197-.23-.439-.157-.805 1.154-.54 2.385-1.465 3.039-2.044.036 0 .117.018.22.04.114.025.254.056.395.076v1.08c-.692.077-1.808.81-2.192 1.311-.039.077-.039.154-.039.154s.039.077.115 0Zm5.386.694c-.423-.694-.577-1.002-.616-1.195-.577-.386-1.192-.54-1.346-.54a28.64 28.64 0 0 0-.423.771v1.427c.291-.041.582-.158.872-.275.513-.206 1.021-.41 1.513-.188Zm3.392.057c-.235-.022-.382-.035-.622-.095a2.088 2.088 0 0 0-.27-2.815c.77.27 1.347.733 1.116 2.93l-.223-.02ZM76.4 48.14a.756.756 0 0 0 .187-.101c.154.308.077 1.08-.077 1.504-.269.154-1 .77-1.154.964v-.039c0-.392.231-.883.429-1.302.171-.365.317-.675.264-.819.09-.09.233-.154.351-.207Zm-2.429 1.248s0 .039.039.116l.022.08c.058.213.083.305.324.305h.011c.087.004.564.02.528-.308 0-.014.02-.034.045-.056.042-.04.094-.088.07-.137 0-.116-.038-.077-.038-.077-.193.039-.808.116-1 .077Zm2.5 2.931c-.192-.424-.384-.848.04-2.39-.347.269-.924.81-1.078 1.079-.104.312.073.607.21.837.067.11.124.206.136.281.033.291-1.26.718-1.724.871-.09.03-.148.049-.16.055a.522.522 0 0 0-.27.424c0 .09-.132.486-.242.813-.077.23-.143.428-.143.46-.038.115-.153.81-.153.81.038.23.038.925.038.925.846-.193.539-.849.5-.849 0-.024.015-.033.035-.045.013-.008.028-.017.042-.032.039-.077.077-.231.039-.308-.116-.154-.077-.231-.077-.231.154-.618.5-1.427.73-1.543.035-.035.73-.133 1.063-.18l.091-.013c.044-.108.34-.385.586-.614.193-.181.355-.333.338-.35Zm5.886.617c-.038.424.385 1.041.578 1.234.038.077.077.193.115.347 0 .026-.132.12-.309.246-.353.251-.883.628-.883.834v.058c.005.125.008.217-.193.25-.104 0 .04.16.142.275a.5.5 0 0 1 .089.11c0 .155-.346.657-.577.657-.039 0-.077 0-.077-.039-.107-.193-.071-.446-.038-.678.026-.186.05-.359 0-.479 0 0-.077-.192.307-.501.048-.048.12-.111.203-.184.255-.223.605-.529.605-.703 0-.205-.125-.364-.259-.535-.144-.184-.298-.38-.318-.66 0 0 .346-.155.615-.232Zm-5.308.81c.055.304.25.569.382.751.053.072.096.13.118.174.103.286.155.658.189.907.017.12.03.212.042.25.038.463-.193.887-.423.926-.116.038-.424.424-.424.5.116.194.808.078.808.078.116-.038.154-.308.154-.308-.115-.309.154-.347.192-.347.27 0 .193-.386.193-.386-.077-.154-.231-1.311-.115-1.774.063-.255-.032-.75-.088-1.043l-.028-.152-.223.098c-.196.088-.417.187-.777.326Zm8.81-4.32s-.116-.076-.155-.115c.577-.385 2-.964 3.155 2.468l-1.193.424c0-.008 0-.024.002-.046.017-.382.118-2.694-1.81-2.73Zm.307 6.826a2.286 2.286 0 0 0-.044-.135c-.108-.32-.36-1.06-.264-1.638a5.656 5.656 0 0 1-.577-.347 4.195 4.195 0 0 1-.962-.694s-.153.23-.115.5c.923.386 1.462 1.235 1.423 2.353 0 .232-.384.694-.384.694-.231.309-.231.424-.231.424.423.077.885-.038.885-.038.038-.039.038-.232 0-.27-.231-.231.038-.386.038-.386.154-.116.27-.27.23-.463Zm-11.04-8.06c.115-.077.538-.616.577-.77l-.347-.193v-.039a6.34 6.34 0 0 1 .347-.617h.038l.385.193.115-.231c-.192-.193-.654-.232-.846-.232-.116.193-.308.54-.308.733-.039.27-.346.848-.346.848l.385.309Zm-.732.078c0-.077.039-.193.078-.154.23.27.576.463.807.54.039 0 .039.038 0 .077-.019.02-.038.01-.057 0-.02-.01-.039-.02-.058 0a.392.392 0 0 1-.27.154c-.153 0-.269-.039-.346-.115-.115-.116-.115-.27-.115-.386 0-.015-.01-.024-.022-.033-.02-.017-.04-.035-.017-.083Zm2.309-2.507c.77.116 1.384.772 1.615 1.312.048.112.1.248.156.396.212.56.487 1.288.883 1.532l-.11.088c-.355.29-1.406 1.149-2.544 1.685l.009-.036c.107-.423.66-2.608-.01-3.28 0 0-.23.27-.346.347-.099.067-.19.104-.288.144-.129.053-.267.11-.442.242-.023.015.007-.024.07-.105.257-.335 1.069-1.392 1.007-2.325Zm-3.5 1.119c.038-.078.191-.27.268-.309-.115-.077-.461-.231-.615-.231 0 0 .154.347.346.54Zm25.62 3.2h1V46.92H97.86v3.163h.962Zm.46.579s.04-.039.04-.154v-.116h-.847v.116c0 .077.038.154.038.154h.77Zm-1.807-4.126h2.731v6.517c-.462.192-1.347.192-1.347.192a5 5 0 0 1-1.384-.192v-6.517Zm-1.539 1.427.077-1.157h-.423l.076 1.157h.27Zm2.885 5.668c1.308 0 2.27-.463 2.27-.463s.461-1.85 2.077-2.892l-.346-.27h-2.308V46.15h-3.462v3.895h-2.347v.231c0 2.198 1.885 2.97 2.385 3.124.539.193 1.116.231 1.731.231Zm.23 1.118c.04 0 .04-.038.04-.076l.038-.772c-.116.039-.5.039-.654 0l.038.772c0 .038 0 .077.039.077h.5Zm-3.346-8.444s0 .154-.154.154h-.385l.154 1.735h.077c.193 0 .231.193.231.193l.038.192h.116l.039-.192s.038-.193.23-.193h.077l.154-1.735h-.23c-.193 0-.193-.154-.193-.154s0-.078-.077-.078-.077.078-.077.078Zm-3.693 4.087c.039.154.27.964.346 1.157.139-.278.122-.586.117-.674v-.012l-.001-.008v-1.581c-.03 0-.086-.005-.157-.01-.29-.024-.835-.068-.959.087-.115.193.154.386.154.386s.077-.078.115-.078c.078.039.308.54.385.733Zm-.861 1.515a.357.357 0 0 0 .092-.05c.27-.115.577-.308.154-1.002a5.915 5.915 0 0 0-.174-.231c-.13-.17-.293-.381-.365-.502-.038.077-1 1.157-1.039 1.195.424.386.847.695 1.27.772-.038-.039-.038-.077-.038-.116 0-.022.05-.044.1-.066Zm13.094-3.752.115-1.31h-.653l.076 1.31h.462Zm-11.425-.5.154-.695.077-.077.012-.015-.012-.024.01-.062a.77.77 0 0 0 .014.072l.745-.897s.116.232.154.386l.005.028c.075.414.148.813.11 2.17 0 .309-.076.656-.73.771h.846s.038.039.038.077c0 .04-.038.078-.038.078h-.192c0 .038.192.5.269.655 0 .039 0 .077.077.077.016 0 .026 0 .034-.003.011-.004.02-.013.043-.035.115-.154.115-.656.115-.694v-3.432h-.115s-.039-.039-.039-.078v-.077s1.731-.347 4.463-.347c2.808 0 4.5.309 4.5.309v.077c0 .038-.038.077-.038.077h-.115v1.234h.307l-.077-.848h.308c.192 0 .192-.193.192-.193s.039-.116.116-.116c.115 0 .115.116.115.116s0 .193.192.193h.308l-.154 1.966h-.115c-.192 0-.231.193-.231.193l-.038.27h-.116l-.038-.27s-.039-.193-.231-.193h-.115l-.039-.848h-.346v2.005c0 .232.154.424.346.463h.346l.163-.017c.395-.04.964-.099 1.299-.099 0 0 .077 0 .077.116s-.077.116-.077.116c-1.885 0-2.693 1.002-3.077 1.504-.693.925-.885 1.773-.885 1.773-.038.039-.808.425-2 .502l.038.77c0 .04 0 .078.039.078h.884v.116c0 .038-.038.077-.038.077s-.077.154-.116.154H97.63l-.116-.154v-.193h.808c.038 0 .038-.038.038-.077l.04-.771c-1.155-.116-2.002-.463-2.733-.849-.056-.031-.121-.074-.197-.124-.384-.254-1.036-.686-2.226-.686-.88 0-1.58.23-2.295.464-.754.247-1.526.5-2.552.5a8.1 8.1 0 0 1-2.347-.346c.039.23.462 1.002 1 1.157.231.076.27.346.231.578 0 0 .039 1.774.154 2.082.039.116-.076.27-.23.27-.077 0-.231.116-.154.231 0 0 .077.04.077.078.038.038 0 .23-.039.27-.038.038-.077.038-.154.038-.154.039-.577 0-.615-.077-.07-.117.143-.39.33-.63.121-.155.232-.297.247-.373.077-.308.077-1.118-.077-1.62-.1-.3-.475-.53-.948-.823-.803-.496-1.89-1.167-2.399-2.647 1.731 1.003 3.27 1.466 4.924 1.504 1.154 0 2-.309 2.731-.578-.73-.155-1.385-.849-1.923-1.427l-.654-.656s-.039-.038 0-.077c.038-.038.115-.038.115-.038.058.038.106.086.154.134a1 1 0 0 0 .154.136c0-.039.038-.077.076-.115v-.001c.04-.039.154.076.193.115.116.116.385.193.5.116.077-.038.308-.27.385-.462.023-.092.181-.414.322-.702.097-.197.186-.377.217-.455.077-.193 1.115-.347 1.385-.386v-.116c.115-.038.692-.116.692-.116v-.038h-.885v-.463l.962-.077Zm.287-1.18-.047.307a.859.859 0 0 1-.01-.13c0-.092.028-.142.057-.176Zm.016-.099.043.044-.02.018a.357.357 0 0 0-.039.038l.016-.1Zm.07-.181.012.07-.077.078-.005.033-.034-.033c-.076-.039 0-.116.039-.116l.065-.032Zm-.008-.049.02.004v.038l-.012.007-.008-.049Zm0 0c-.05-.011-.18-.042-.211-.073-.039-.039-.039-.154-.039-.193l-.038-.038v-.116c0-.039-.077-.039-.077-.039-.06-.02-.017-.09.028-.165.042-.07.086-.144.049-.182-.035-.053-.103-.13-.166-.202-.074-.085-.142-.163-.142-.183l.039-.077h.115c.11.027.278.015.407.006.053-.003.099-.006.132-.006.307-.078.807.154.73.5l-.002.004-.267.267c-.042.042-.06.06-.063.082-.002.018.007.037.025.072l-.539.231.019.112Zm-17.791-.382c-.924-.038-1.347.425-1.347.425s.308.347.385.462c.166.233.16.467.155.65l-.001.083c.086-.121.118-.281.155-.467.046-.226.099-.49.268-.767a.806.806 0 0 1 .423-.308c-.022-.023-.031-.032-.035-.043-.003-.009-.003-.018-.003-.035Zm17.388 9.641-1.27 1.311a2.25 2.25 0 0 1-.577-1.35l1.847.04Zm.23-.501v.038l-1.308-1.272c.385-.347.847-.54 1.347-.54l-.038 1.774Zm-.038.733.038 1.812a2.235 2.235 0 0 1-1.346-.579l1.308-1.233Zm-.192-.54-1.808.038c0-.269.076-.5.153-.73V54.4c.077-.23.23-.423.384-.615l.001-.002 1.192 1.234.078.077Zm1.961 1.62-1.23-1.312 1.807-.039a2.432 2.432 0 0 1-.384 1.119c-.038.076-.115.153-.19.23l-.003.001Zm.577-1.543-1.807-.039 1.269-1.31c.346.385.538.847.538 1.349Zm-2.038.5v-.038l1.308 1.273c-.385.347-.847.54-1.347.54l.039-1.774Zm.038-.809-.038.039-.039-1.813c.5.039.962.232 1.347.579l-1.27 1.195Zm-.192-2.16a2.58 2.58 0 0 0-2.578 2.584 2.58 2.58 0 0 0 2.578 2.584 2.58 2.58 0 0 0 2.577-2.584 2.58 2.58 0 0 0-2.577-2.583ZM104.9 54.44l-2.731-.039v.078a3.25 3.25 0 0 0 .846 2.005l1.924-1.967v-.038c0-.02 0-.03-.005-.034-.005-.005-.015-.005-.034-.005Zm0-.386-.038-.038-1.885-1.928c-.539.54-.808 1.273-.846 2.044l2.731-.04s.077 0 .038-.038Zm.269.695c0-.039-.038-.039-.038-.039l-1.962 1.928c.577.502 1.308.81 2.039.849l-.039-2.738Zm0-.926c.039.039.039-.039.039-.039l.038-2.737c-.769.038-1.462.308-2.038.848l1.961 1.928Zm3.424.617-2.77.039 1.924 2.005c.5-.578.808-1.273.846-2.044Zm-.846-2.352-1.924 2.005 2.77.038c-.038-.732-.346-1.465-.846-2.043Zm-2.193 2.66c-.039-.038-.039 0-.039 0s0 2.739-.038 2.777c.77-.038 1.462-.347 2.039-.848l-1.962-1.928Zm.038-.964 1.963-1.928a3.251 3.251 0 0 0-2.04-.848l.039 2.776v.04l.038-.04Zm-2.769-2.082c.692-.694 1.577-1.08 2.539-1.08 2 0 3.616 1.62 3.654 3.625a3.616 3.616 0 0 1-3.616 3.625c-.923 0-1.769-.347-2.462-.964l-.038-.039-.077-.077-.039-.038a3.636 3.636 0 0 1-1-2.507 3.53 3.53 0 0 1 1.039-2.545Z"
        class="Combined Shape" clip-rule="evenodd" />
</svg>
