<svg xmlns="http://www.w3.org/2000/svg" width="182" height="125" fill="none" viewBox="0 0 182 125">
    <path fill="#3A4850" fill-rule="evenodd"
        d="M71.563 58.703c0-6.238 5.09-11.312 11.347-11.312s11.347 5.074 11.347 11.312c0 6.239-5.09 11.312-11.347 11.312-6.256 0-11.347-5.073-11.347-11.312m-1.72 0c0 7.184 5.862 13.028 13.067 13.028s13.067-5.844 13.067-13.028c0-7.183-5.862-13.028-13.067-13.028S69.843 51.52 69.843 58.703"
        class="Fill 1" clip-rule="evenodd" />
    <path fill="#3A4850" fill-rule="evenodd"
        d="M84.794 59.123h3.181c.944 0 1.504.175 1.864 1.017.298-.718.808-1.004 1.679-1.017h.334v4.189h-4.138c.386-.335.584-.77.584-1.276 0-.918-.72-1.599-1.74-1.599-1.154 0-1.838.68-1.838 1.599 0 .618.324 1.065.944 1.276-.609.296-.944.817-.944 1.462 0 1.016.733 1.56 2.187 1.56.174 0 .373-.013.584-.025v1.412h-2.697c-.982 0-1.516-.198-1.863-1.029-.349.831-.883 1.029-1.864 1.029H78.37v-1.412c.212.012.41.024.596.024 1.442 0 2.188-.543 2.188-1.56 0-.644-.348-1.165-.958-1.461.622-.211.945-.657.945-1.276 0-.918-.671-1.599-1.827-1.599-1.02 0-1.74.68-1.74 1.599 0 .507.187.94.572 1.276h-4.137v-4.189h.335c.87.014 1.38.299 1.678 1.017.348-.83.882-1.017 1.863-1.017h3.181c.92 0 1.491.15 1.865 1.017.347-.83.881-1.017 1.863-1.017"
        class="Fill 4" clip-rule="evenodd" />
    <path fill="#3A4850" fill-rule="evenodd"
        d="M81.026 58.283h-3.18c-.945 0-1.504-.174-1.864-1.017-.299.72-.808 1.003-1.678 1.017h-.336v-4.187h4.139a1.632 1.632 0 0 0-.585 1.276c0 .916.721 1.597 1.74 1.597 1.155 0 1.838-.681 1.838-1.598 0-.62-.322-1.065-.944-1.275.61-.298.944-.818.944-1.463 0-1.016-.732-1.56-2.186-1.56-.174 0-.373.012-.584.025v-1.413h2.696c.982 0 1.517.2 1.864 1.03.348-.83.882-1.03 1.864-1.03h2.697v1.413a9.884 9.884 0 0 0-.598-.025c-1.44 0-2.187.544-2.187 1.56 0 .645.35 1.165.958 1.463-.622.21-.944.656-.944 1.276 0 .916.671 1.597 1.826 1.597 1.02 0 1.74-.681 1.74-1.598a1.62 1.62 0 0 0-.573-1.275h4.138v4.187h-.335c-.87-.014-1.378-.298-1.677-1.017-.347.83-.882 1.017-1.863 1.017h-3.182c-.919 0-1.491-.149-1.864-1.017-.347.83-.882 1.017-1.864 1.017"
        class="Fill 6" clip-rule="evenodd" />
    <path fill="#3A4850" fill-rule="evenodd" d="M32.945 54.147v1.682h-3.413v7.517h-2.326V55.83H23.78v-1.682h9.165Z"
        class="Fill 8" clip-rule="evenodd" />
    <path fill="#3A4850" fill-rule="evenodd"
        d="M37.401 55.814c-1.712.755-1.843 2.385-1.843 2.997 0 .184.013.783.248 1.33.066.169.145.34.354.626.065.079.235.325.47.52.367.313 1.073.704 2.21.704.208 0 .758-.012 1.333-.221 1.817-.65 1.974-2.437 1.974-3.01 0-.39-.065-1.395-.824-2.242-.653-.704-1.633-1.043-2.589-1.003a3.71 3.71 0 0 0-1.333.299m4.654-1.303c.145.076.406.208.732.442.261.197.524.43.733.692.391.456.98 1.472.98 3.01 0 .183-.013.666-.105 1.173-.13.614-.484 1.942-1.882 2.88-.641.417-1.817.94-3.648.94-2.743 0-4.195-1.11-4.862-2.087-.314-.442-.824-1.408-.824-2.814 0-2.125 1.033-3.232 1.713-3.754 1.007-.77 2.352-1.095 3.594-1.133 1.15-.053 2.537.14 3.57.651"
        class="Fill 10" clip-rule="evenodd" />
    <path fill="#3A4850" fill-rule="evenodd"
        d="M48.721 58.017h3.7c.013 0 .379 0 .576-.04.274-.077.81-.299.81-1.054 0-.09-.013-.431-.183-.692-.287-.441-.797-.455-1.267-.47H48.72v2.256Zm4.054-3.87c.796.013 1.15.052 1.53.167 1.188.353 1.84 1.371 1.84 2.58 0 .237-.012.694-.246 1.214-.419.94-1.217 1.226-2.158 1.394l2.81 3.845h-2.73l-2.458-3.7H48.72v3.7h-2.3v-9.2h6.354Z"
        class="Fill 12" clip-rule="evenodd" />
    <path fill="#3A4850" fill-rule="evenodd"
        d="m59.14 54.147 2.457 3.466c.131.17.196.26.262.456.04-.104.077-.196.224-.39l2.509-3.532H67.4l-4.405 5.747v3.452h-2.3v-3.452l-4.394-5.747h2.838Z"
        class="Fill 14" clip-rule="evenodd" />
    <path fill="#3A4850" fill-rule="evenodd"
        d="M102.11 61.824h3.478c.261 0 .537 0 .797-.09.315-.105.707-.404.707-1.16 0-.106-.026-.523-.275-.808-.261-.288-.59-.302-.956-.313l-3.751.011v2.36Zm0-3.975h3.307c.444 0 .892 0 1.139-.442.144-.236.144-.495.144-.586 0-.08 0-.26-.078-.456-.221-.586-.876-.535-1.022-.535h-3.49v2.019Zm3.698-3.609c.696.013 1.439.025 2.069.35.431.236 1.044.743 1.044 1.904 0 .402-.079 1.316-1.111 1.799-.091.038-.207.091-.417.156.417.104.573.155.783.26 1.15.573 1.215 1.656 1.215 2.085 0 .352-.025 1.423-.926 2.1-.695.534-1.492.546-2.302.546h-6.339v-9.2h5.984Z"
        class="Fill 16" clip-rule="evenodd" />
    <path fill="#3A4850" fill-rule="evenodd"
        d="M113.81 54.24v5.42c.027.705.105 1.292.732 1.735.732.52 1.792.496 2 .496.169 0 1.084 0 1.727-.365.429-.237.641-.561.732-.731.105-.21.13-.366.156-.808V54.24h2.299v5.355c-.011.86-.011 1.579-.47 2.32-.077.12-.26.393-.548.653-.994.886-2.641 1.184-3.909 1.184a8.86 8.86 0 0 1-1.804-.18c-1.844-.406-2.627-1.355-2.956-2.113-.195-.455-.246-.874-.259-1.876V54.24h2.3Z"
        class="Fill 18" clip-rule="evenodd" />
    <path fill="#3A4850" fill-rule="evenodd"
        d="M126.387 58.11h3.699c.012 0 .379 0 .576-.04.271-.077.807-.3.807-1.054 0-.092-.01-.431-.18-.693-.289-.44-.799-.455-1.27-.469h-3.632v2.256Zm4.05-3.87c.8.013 1.152.05 1.53.167 1.189.352 1.843 1.371 1.843 2.58 0 .237-.011.693-.248 1.214-.417.94-1.214 1.224-2.158 1.394l2.812 3.845h-2.732l-2.458-3.701h-2.639v3.7h-2.303v-9.2h6.353Z"
        class="Fill 20" clip-rule="evenodd" />
    <path fill="#3A4850" fill-rule="evenodd"
        d="M143.51 57.132a3.167 3.167 0 0 0-.927-.977c-.304-.196-.929-.51-1.845-.51a3.74 3.74 0 0 0-1.437.275c-1.202.495-1.843 1.641-1.843 2.934 0 .637.196 1.34.575 1.874.079.119.276.352.575.588.353.286 1.06.743 2.195.743 1.348 0 2.065-.562 2.432-.99.157-.17.261-.34.472-.73l2.43-.028c-.127.47-.207.641-.325.873-.146.288-.393.706-.956 1.202-.758.663-1.972 1.366-4.248 1.366-.522 0-2.351-.012-3.789-1.08-1.676-1.237-1.754-3.167-1.754-3.844 0-.94.221-1.916.745-2.7a3.9 3.9 0 0 1 .588-.691c.316-.299.471-.403.656-.52.6-.404 1.841-.964 3.684-.964.511 0 2.288.05 3.727 1.001a4.596 4.596 0 0 1 1.385 1.474c.065.132.132.26.183.393l-2.523.31Z"
        class="Fill 22" clip-rule="evenodd" />
    <path fill="#3A4850" fill-rule="evenodd"
        d="M149.812 54.24v3.546h5.569V54.24h2.313v9.2h-2.313v-3.95h-5.569v3.949h-2.315v-9.2h2.315Z" class="Fill 24"
        clip-rule="evenodd" />
</svg>
