<svg xmlns="http://www.w3.org/2000/svg" width="181" height="125" fill="none" viewBox="0 0 181 125">
    <path fill="#3A4850" fill-rule="evenodd"
        d="M30.219 60.905h-2.194v4.198h2.294c1.395 0 2.99-.3 2.99-1.999 0-2-1.295-2.2-3.09-2.2m-.399-3.999h-1.795v3.5h2.294c1.296 0 2.293-.2 2.293-1.8 0-1.5-.997-1.7-2.792-1.7m1.795 8.599H23.24v-.4h2.194v-8.199H23.24v-.5h7.477c2.393 0 4.188.7 4.188 2.2 0 1.3-1.496 2-3.39 2 2.293 0 4.287.9 4.287 2.5 0 1.198-1.396 2.399-4.187 2.399"
        class="Fill 1" clip-rule="evenodd" />
    <path fill="#3A4850" fill-rule="evenodd"
        d="M79.17 60.905h-2.194v4.198h2.293c1.396 0 2.891-.3 2.891-1.999 0-2-1.195-2.2-2.99-2.2m-.4-3.999h-1.794v3.5h2.293c1.297 0 2.294-.2 2.294-1.8 0-1.5-.997-1.7-2.792-1.7m1.795 8.599h-8.375v-.4h2.194v-8.199H72.19v-.5h7.477c2.393 0 4.188.7 4.188 2.2 0 1.3-1.496 2-3.39 2 2.293 0 4.287.9 4.287 2.5 0 1.198-1.396 2.399-4.187 2.399"
        class="Fill 4" clip-rule="evenodd" />
    <path fill="#3A4850" fill-rule="evenodd"
        d="M51.056 56.905v5.6c0 2.299-1.895 3.299-4.985 3.299-2.194 0-5.584-.6-5.584-3.2v-5.699h-2.193v-.5h7.079v.5H43.08v5.7c0 2.199 1.794 2.498 3.49 2.498 2.093 0 3.987-.699 3.987-2.599v-5.599h-2.293v-.5h5.085v.5h-2.293Z"
        class="Fill 6" clip-rule="evenodd" />
    <path fill="#3A4850" fill-rule="evenodd"
        d="M62.022 56.905h-1.894v3.6h1.994c1.495 0 2.592-.3 2.592-1.8 0-1.4-.798-1.8-2.692-1.8m6.48 8.899c-1.495 0-3.29-.7-3.29-2.6v-.6c0-1.1-.996-1.6-2.492-1.6h-2.592v4.1h2.094v.4h-6.88v-.4h2.194v-8.199h-2.194v-.5h7.677c2.692 0 4.287 1 4.287 2.3 0 1.2-1.396 2.1-3.39 2.1 2.792 0 3.988 1.2 3.988 2.499v1c0 .6.3 1 .998 1 .498 0 .797-.2.996-.4l.299.4c-.399.3-.897.5-1.694.5"
        class="Fill 9" clip-rule="evenodd" />
    <path fill="#3A4850" fill-rule="evenodd"
        d="M127.722 56.905h-1.894v3.6h1.994c1.496 0 2.691-.3 2.691-1.8 0-1.4-.897-1.8-2.791-1.8m6.481 8.899c-1.496 0-3.191-.7-3.191-2.6v-.6c0-1.1-1.096-1.6-2.592-1.6h-2.592v4.1h2.093v.4h-6.879v-.4h2.194v-8.199h-2.194v-.5h7.777c2.592 0 4.287 1 4.287 2.3 0 1.2-1.496 2.1-3.49 2.1 2.891 0 3.988 1.2 3.988 2.499v1c0 .6.399 1 .997 1 .499 0 .798-.2 1.097-.4l.199.4c-.399.3-.897.5-1.694.5"
        class="Fill 12" clip-rule="evenodd" />
    <path fill="#3A4850" fill-rule="evenodd"
        d="M110.873 56.905h-1.894v3.6h1.994c1.496 0 2.592-.3 2.592-1.8 0-1.4-.897-1.8-2.692-1.8m6.481 8.899c-1.496 0-3.291-.7-3.291-2.6v-.6c0-1.1-1.096-1.6-2.591-1.6h-2.493v4.1h2.094v.4h-6.879v-.4h2.193v-8.199h-2.193v-.5h7.676c2.692 0 4.287 1 4.287 2.3 0 1.2-1.495 2.1-3.389 2.1 2.791 0 3.987 1.2 3.987 2.499v1c0 .6.3 1 .997 1 .499 0 .798-.2.997-.4l.199.4c-.398.3-.797.5-1.594.5"
        class="Fill 15" clip-rule="evenodd" />
    <path fill="#3A4850" fill-rule="evenodd"
        d="M87.744 65.504v-.4h2.293v-8.199h-2.293v-.5h12.063v2.9h-.498c0-1.2-.898-2.4-3.19-2.4h-3.59v3.7h1.396c1.695 0 2.193-.9 2.193-1.7h.499v3.9h-.499c0-.8-.498-1.7-2.193-1.7h-1.396v3.998h3.689c2.891 0 3.988-1.3 3.988-2.699h.498v3.1h-12.96Z"
        class="Fill 18" clip-rule="evenodd" />
    <path fill="#3A4850" fill-rule="evenodd"
        d="m149.456 56.905-4.088 4.8v3.398h2.293v.4h-7.078v-.4h2.293v-3.499l-4.187-4.699h-2.492v-.5h7.577v.5h-2.293l3.788 4.1 3.589-4.1h-2.193v-.5h4.785v.5h-1.994Z"
        class="Fill 20" clip-rule="evenodd" />
    <path fill="#3A4850" fill-rule="evenodd"
        d="M154.74 54.506v-.7h.499c.398 0 .597.1.597.4 0 .2-.199.3-.498.3h-.598Zm-.299-1v2.4h.299v-1h.399l.698 1h.399l-.698-1.1c.398 0 .598-.3.598-.6 0-.5-.299-.7-.798-.7h-.897Zm.698-.6h.1c.897 0 1.694.8 1.694 1.8s-.797 1.7-1.694 1.7c-.998 0-1.695-.7-1.695-1.7s.697-1.7 1.595-1.8Zm.1-.3c-1.197 0-2.194.9-2.194 2.1 0 1.2.997 2.1 2.194 2.1 1.196 0 2.093-.9 2.093-2.1 0-1.2-.997-2.1-2.093-2.1Z"
        class="Fill 22" clip-rule="evenodd" />
</svg>
