<svg xmlns="http://www.w3.org/2000/svg" width="181" height="125" fill="none" viewBox="0 0 181 125">
    <path fill="#3A4850" fill-rule="evenodd"
        d="M90.643 60.277c2.382-.022 4.74-.22 7.078-.668 2.295-.441 4.51-1.118 6.589-2.204 1.191-.622 2.289-1.369 3.145-2.425 1.324-1.635 1.389-3.527.175-5.213-.658-.913-1.529-1.588-2.471-2.178-1.437-.9-3.004-1.503-4.618-1.992a27.255 27.255 0 0 0-5.059-1.038 63.761 63.761 0 0 0-2.094-.176 211.08 211.08 0 0 1-.712-.053c-1.584-.122-3.171-.088-4.75.039a39.05 39.05 0 0 0-3.808.503c-2.26.407-4.454 1.06-6.525 2.07-1.3.634-2.478 1.444-3.415 2.566-.606.725-1.01 1.545-1.067 2.507-.072 1.227.396 2.257 1.192 3.152 1.064 1.195 2.4 2.013 3.84 2.666 2.66 1.205 5.477 1.829 8.362 2.146.945.104 1.895.16 2.845.217.43.026.862.051 1.293.081ZM92.87 42.28l.128.013c.092.01.184.02.276.025.468.024.936.044 1.404.064a78.7 78.7 0 0 1 3.127.175c1.412.117 2.82.298 4.223.5 2.622.377 5.216.895 7.763 1.637 2.283.666 4.479 1.54 6.508 2.794.945.585 1.808 1.27 2.496 2.154 1.345 1.726 1.345 3.621 0 5.35-.881 1.133-2.022 1.94-3.261 2.627-2.103 1.166-4.34 1.99-6.652 2.625a48.19 48.19 0 0 1-6.048 1.254l-.089.012c-1.261.177-2.523.354-3.789.486-3.334.352-6.68.48-10.03.372a141.58 141.58 0 0 1-4.276-.193 48.697 48.697 0 0 1-3.038-.29l-.344-.042c-1.355-.17-2.713-.339-4.056-.584a64.489 64.489 0 0 1-4.44-.982c-2.442-.624-4.792-1.497-6.993-2.745-1.124-.637-2.155-1.392-2.995-2.387-.632-.748-1.03-1.6-1.1-2.587-.063-.89.188-1.701.66-2.448.664-1.048 1.6-1.813 2.618-2.486 1.587-1.05 3.316-1.803 5.112-2.41a46.503 46.503 0 0 1 7.512-1.85c1.731-.278 3.469-.536 5.212-.717 1.134-.117 2.274-.18 3.414-.243.513-.029 1.027-.057 1.54-.09.07-.005.138-.014.207-.023l.09-.011h4.82ZM51.472 70.329h.004v1.723l-.008.434c-.005.228-.01.457-.005.685.007.371.126.531.481.568.383.04.774.052 1.157.023.392-.03.491-.167.529-.57.012-.128.011-.258.011-.387l-.008-2.699-.006-1.802c0-.095.002-.19.004-.286.003-.184.006-.368-.005-.552-.017-.29-.116-.419-.396-.445a6.87 6.87 0 0 0-1.24-.024c-.458.04-.519.152-.518.618v2.714Zm-3.712-2.885c.087-.654.583-.85 1.12-.986.915-.233 1.853-.305 2.792-.292 1.182.016 2.364.056 3.544.126.459.027.921.133 1.365.262.574.167.744.422.764 1.022.008.211.004.423 0 .634a15.88 15.88 0 0 0-.005.378v.726c.002 1.287.003 2.574.009 3.861.002.594-.135.859-.705 1.027a8.941 8.941 0 0 1-1.084.224c-.157.026-.313.052-.469.08-.06.012-.12.022-.18.032l-.092.015h-4.39l-.098-.015-.194-.031c-.15-.025-.3-.048-.451-.071-.35-.054-.7-.108-1.043-.186-.436-.098-.795-.323-.883-.817v-5.99Zm86.055-1.088h.001l.016-.017.015-.016v-.086l-.743.005c-.684.005-1.369.01-2.053.003-.225-.002-.343.073-.45.264a87.788 87.788 0 0 1-.91 1.568l-.236.401c-.108.184-.218.366-.333.555l-.069.114-.085.141-.057-.098h-.001a31.51 31.51 0 0 1-.072-.123l-.18-.31-.209-.358a375.28 375.28 0 0 1-1.145-1.971c-.078-.136-.171-.181-.326-.18-.875.004-1.749.004-2.624.003h-1.14c-.044 0-.087.003-.14.007l-.056.004-.051.003.187.288c.131.2.255.39.383.579l.27.4.005.007.001.001c.824 1.217 1.647 2.435 2.476 3.649.154.225.152.465.148.72-.011.654-.014 1.308-.017 1.963v.001l-.003.49c0 .019.008.037.014.052l.003.007a.178.178 0 0 0 .003.009h4.002v-.697c-.001-.704-.002-1.395.006-2.087a.81.81 0 0 1 .125-.414c.989-1.504 1.985-3.004 2.981-4.503l.201-.302a.428.428 0 0 1 .063-.072Zm-43.3-.067-.07.073a6.476 6.476 0 0 0-.141.147l-.687.744c-.686.743-1.372 1.487-2.062 2.226-.12.127-.106.213-.023.348.724 1.182 1.444 2.366 2.164 3.55l.51.84.084.144.046.081a4.153 4.153 0 0 0-.08.008 1.37 1.37 0 0 1-.122.008h-1.112c-.906 0-1.812 0-2.718.004-.14 0-.22-.04-.291-.161-.497-.857-.998-1.71-1.498-2.565l-.346-.59a.493.493 0 0 0-.154-.173v3.474h-3.987V66.25h1.105l.765.002c.627.002 1.255.004 1.882 0 .184-.002.244.044.242.24-.01.75-.01 1.5-.011 2.25v.68c0 .01.002.023.008.044.004.014.01.032.015.056l.23-.24c.16-.165.311-.324.46-.486l.145-.158a266.7 266.7 0 0 0 1.945-2.132.74.74 0 0 1 .613-.275c.742.01 1.483.009 2.224.007l.83-.001.013.02.02.031ZM67.54 68.354l.061-.008.61 1.762.46 1.335h-2.039l.908-3.09Zm-4.451 5.794-.106.299.087.005c.048.004.088.006.129.006h.689c.588-.001 1.176-.002 1.764.005.176.003.229-.066.27-.218.081-.302.168-.602.254-.903.072-.25.144-.5.213-.75.034-.122.086-.179.219-.178.717.004 1.434.005 2.151-.001.143 0 .194.066.233.19.079.244.16.485.24.727.104.308.207.616.304.925.05.157.118.209.284.208.933-.006 1.865-.005 2.797-.005h.97c.044 0 .089-.003.14-.007l.036-.002.047-.004a9.867 9.867 0 0 1-.024-.07 3.203 3.203 0 0 0-.052-.15l-.757-1.935-.003-.006-.002-.007v-.001c-.756-1.93-1.511-3.861-2.262-5.793-.067-.173-.144-.238-.335-.237-1.385.01-2.77.011-4.153-.001-.22-.002-.31.07-.382.268-.596 1.664-1.198 3.326-1.8 4.988l-.658 1.82c-.098.273-.194.546-.293.827Zm55.209-6.833h-3.781v2.503h2.913v.966h-2.899v2.606h3.76v1.05h-7.794v-8.175h7.801v1.05Zm-17.711 6.034v-7.082H96.59v8.174h7.977c0-.088-.001-.174-.003-.26-.002-.195-.005-.385.007-.574.013-.2-.055-.257-.25-.256-.875.004-1.75.002-2.625 0l-.84-.002h-.268Z"
        class="Combined Shape" clip-rule="evenodd" />
</svg>
