<svg xmlns="http://www.w3.org/2000/svg" width="182" height="125" fill="none" viewBox="0 0 182 125">
    <path fill="#3A4850" fill-rule="evenodd"
        d="M50.586 56.192c-.659-1.42-1.385-2.818-2.602-3.836-1.295-1.096-2.936-1.756-4.634-1.756-4.511 0-6.532 4.082-6.532 8.096 0 3.88 1.931 7.805 6.287 7.805 1.775 0 3.506-.771 4.6-2.169v-3.13c0-.85-.28-1.398-.938-1.901h4.612c-.492.559-.793 1.129-.793 1.9v3.131c-2.11 1.968-4.735 3.176-7.649 3.176-5.147 0-9.357-3.79-9.357-9.069 0-5.244 4.154-8.833 9.234-8.833 3.16 0 5.717 1.162 7.772 3.5v3.086Zm93.427-5.971h4.031c-.447.346-.715.77-.715 1.353v13.9c0 .58.279.994.715 1.34h-4.031c.435-.346.703-.771.703-1.34v-13.9c0-.582-.257-1.007-.703-1.353Zm-77.783 0h-4.344c.513.447.793.961.793 1.655v10.142c0 3.768 4.5 5.132 7.582 5.132 2.992 0 7.314-1.409 7.314-5.077V51.877c0-.671.178-1.163.658-1.655h-2.367c.458.503.625.972.625 1.655v10.198c0 2.717-3.06 4.092-5.404 4.092-2.39 0-5.65-1.364-5.65-4.148V51.876c0-.727.2-1.22.793-1.655Zm39.159 6.026c-.581-1.464-1.262-2.75-2.456-3.812-1.285-1.141-2.848-1.857-4.579-1.857-4.466 0-6.755 3.914-6.755 7.973 0 4.082 2.378 7.94 6.788 7.94 3.284 0 5.629-2.316 7.002-5.1v3.02c-2.044 2.023-4.678 3.052-7.56 3.052-5.336 0-9.335-3.455-9.335-8.968 0-5.356 3.842-8.878 9.08-8.878 2.902 0 5.716 1.006 7.815 3.008v3.622Zm25.548-3.812c1.195 1.062 1.876 2.348 2.457 3.812v-3.622c-2.1-2.002-4.913-3.008-7.817-3.008-5.237 0-9.077 3.522-9.077 8.878 0 5.513 3.997 8.968 9.334 8.968 2.892 0 5.516-1.029 7.56-3.053v-3.019c-1.363 2.784-3.719 5.1-7.001 5.1-4.411 0-6.779-3.858-6.779-7.94 0-4.059 2.279-7.973 6.745-7.973 1.731 0 3.294.716 4.578 1.857Z"
        class="Combined Shape" clip-rule="evenodd" />
</svg>
