<svg xmlns="http://www.w3.org/2000/svg" width="182" height="125" fill="none" viewBox="0 0 182 125">
    <path fill="#3A4850" fill-rule="evenodd"
        d="m128.161 49.688.005-.08c.05-.871.094-1.638.738-2.206.771-.637 1.593-.61 2.521-.557l-.025 1.222h-.094c-.424-.002-.865-.004-1.26.293-.398.318-.451.797-.451 1.752v1.755h1.83v1.116h-1.83v12.595h-1.434V52.983h-1.46v-1.09h1.46v-2.205Zm-66.962-.425h-1.672v-2.365H61.2v2.365Zm-.132 16.315h-1.434V51.919h1.434v13.659Zm-6.424-10.682H47.24v-7.944h-1.567v18.626h1.593v-9.274h7.378v9.274h1.54V46.95h-1.54v7.945Zm9.66 10.682h1.486V46.95h-1.486v18.627Zm4.91-12.117c-.238.584-.318 1.196-.398 1.86h1.487c.053-.717.106-1.382.61-1.886.213-.24.77-.691 1.645-.691.664 0 1.089.239 1.302.398.796.532.849 1.249.849 2.179 0 .797-.027 1.143-.266 1.435-.418.535-1.385.846-2.1 1.076-.103.032-.2.063-.288.093-1.115.345-2.124.744-2.84 1.7-.72 1.003-.718 2.107-.717 2.562v.043c0 .903.132 1.408.266 1.78.265.69 1.035 1.967 2.972 1.967 1.715 0 2.565-.964 3.005-1.462l.047-.054a.947.947 0 0 1 .023.081c.069.263.243.93.853 1.142.213.08.398.08.505.08.292 0 .727-.058.959-.088.084-.011.14-.019.155-.019v-1.036c-.663-.08-.982-.133-1.061-.824a4.07 4.07 0 0 1-.059-.526c-.006-.09-.012-.18-.021-.27v-8.158c0-.16-.026-1.116-.372-1.834-.133-.265-.371-.61-.61-.797-.876-.69-2.257-.718-2.469-.718-2.203 0-3.105 1.09-3.477 1.967Zm1.885 6.35a4.728 4.728 0 0 1 1.036-.505l2.6-1.089v3.215c-.053.904-.133 1.621-.716 2.311-.504.586-1.248.958-1.99.958-.611 0-.957-.213-1.17-.372-.476-.372-.821-.957-.821-2.206 0-1.275.636-1.992 1.061-2.312Zm10.086-8.024v1.726l.184-.263c.208-.298.267-.383.48-.64.952-1.128 1.998-1.12 2.648-1.116h.112l-.026 1.462c-1.275.107-1.753.292-2.257.744-.899.755-.997 2.153-1.028 2.588l-.007.096v9.194h-1.513v-13.79h1.407Zm11.731.053-3.131 11.506L86.89 51.84h-1.513l3.609 13.71-.003.015c-.16.693-.425 1.85-.846 2.484-.16.266-.663.903-1.646.903-.247 0-.607-.065-.767-.093a.932.932 0 0 0-.082-.014l-.026 1.223c.61.106.796.133 1.14.133 1.912 0 2.575-1.356 2.84-1.94.16-.372.319-.797.452-1.195l4.353-15.227h-1.487Zm13.509-4.916c.126.009.249.014.371.02.262.012.517.024.771.06h.001c.587.053 2.681.241 4.06 1.993.796.983 1.035 1.966 1.3 3.188.16 1.409.318 2.843.318 4.279 0 1.342-.192 2.732-.303 3.535-.032.23-.057.412-.069.53a1.78 1.78 0 0 1-.02.072c-.086.313-.358 1.298-.696 1.974-.372.718-1.327 2.285-3.371 2.817-.45.106-.902.159-1.353.186h-5.15V46.924h4.141Zm-2.548 17.192h3.425c1.008-.053 1.618-.159 2.388-.85 1.058-.938 1.332-2.008 1.492-2.635v-.001l.048-.18c.211-1.249.37-2.205.37-4.677 0-1.01 0-1.834-.344-3.773a20.153 20.153 0 0 1-.09-.316c-.097-.346-.192-.687-.335-1.013-.477-1.09-1.167-1.515-1.592-1.727a4.46 4.46 0 0 0-1.54-.506c-.534-.092-1.151-.083-1.402-.08l-.084.001h-2.336v15.757Zm13.828-2.445v-9.752h-1.46v10.204c.027 1.435.159 1.94.584 2.525.902 1.196 2.203 1.301 2.654 1.301.877 0 1.832-.291 2.576-.877a5.19 5.19 0 0 0 .795-.743v1.249h1.38V51.919H122.8v10.47c-.477.824-.929 1.595-1.805 2.046-.186.106-.583.266-1.141.266-.265 0-.77-.027-1.301-.452-.875-.69-.875-1.542-.849-2.578Zm16.248-12.064-.005.081v2.205h-1.46v1.09h1.46v12.595h1.434V52.983h1.831v-1.116h-1.831v-1.755c0-.955.053-1.434.451-1.752.395-.297.836-.295 1.26-.294h.094l.026-1.221c-.929-.054-1.751-.08-2.522.557-.643.568-.688 1.335-.738 2.205Z"
        class="Combined Shape" clip-rule="evenodd" />
</svg>
