<svg xmlns="http://www.w3.org/2000/svg" width="181" height="125" fill="none" viewBox="0 0 181 125">
    <path fill="#3A4850" fill-rule="evenodd"
        d="m132.14 54.37-2.854 5.55h6.045l-3.191-5.55Zm4.535 11.837v-.302c.922 0 1.315-.272 1.315-.874 0-.274-.113-.629-.308-.984l-1.68-2.953h-7.275l-1.287 2.598c-.168.355-.309.765-.309 1.176 0 .628.28 1.037 1.064 1.037v.302h-4.505v-.302c1.062 0 1.735-.71 2.379-1.994l5.4-10.744-1.51-2.488c-.785-1.285-1.596-1.558-2.407-1.558v-.3h7.08l8.732 15.226c.53.93 1.118 1.858 2.294 1.858v.302h-8.983Zm-19.282-11.893c0-3.143-2.016-4.318-4.254-4.318h-2.407V65.03h2.407c2.238 0 4.254-1.175 4.254-4.318v-6.398Zm-3.498 11.893h-10.298v-.302c.223 0 2.211-.108 2.211-2.104V51.226c0-1.996-1.988-2.105-2.211-2.105v-.3h10.298c4.619 0 9.43 2.951 9.43 8.693 0 5.769-4.811 8.693-9.43 8.693Zm-25.69-11.838-2.855 5.55h6.045l-3.19-5.55Zm4.534 11.838v-.302c.924 0 1.315-.272 1.315-.874 0-.274-.113-.629-.308-.984l-1.68-2.953h-7.275l-1.288 2.598c-.167.355-.308.765-.308 1.176 0 .628.28 1.037 1.065 1.037v.302h-4.506v-.302c1.062 0 1.733-.71 2.378-1.994l5.4-10.744-1.51-2.488c-.783-1.285-1.596-1.558-2.408-1.558v-.3h7.082l8.73 15.226c.532.93 1.121 1.858 2.296 1.858v.302h-8.983ZM66.77 49.996h-3.667v8.446h3.666c2.66 0 3.947-1.967 3.947-4.21 0-2.242-1.288-4.236-3.947-4.236Zm4.476 16.21-8.143-6.588v4.183c0 1.996 1.987 2.104 2.21 2.104v.302h-9.318v-.302c.224 0 2.211-.108 2.211-2.104V51.226c0-1.996-1.987-2.105-2.21-2.105v-.3h13.098c4.168 0 6.127 2.707 6.127 5.411 0 2.681-1.959 5.386-6.127 5.386h-4.087c.896.93 2.77 1.313 4.477 1.313.755 0 1.51-.11 2.155-.273l6.632 5.302v.247h-7.025Zm-25.94-16.21h-3.64v8.446h3.64c2.686 0 3.944-1.967 3.944-4.21 0-2.242-1.258-4.236-3.945-4.236Zm2.321 9.622h-5.96v4.183c0 1.996 1.987 2.104 2.211 2.104v.302H34.53v-.302c.224 0 2.211-.108 2.211-2.104V51.226c0-1.996-1.987-2.105-2.211-2.105v-.3h13.096c4.171 0 6.157 2.707 6.157 5.411 0 2.681-1.986 5.386-6.157 5.386Z"
        class="Fill 1" clip-rule="evenodd" />
</svg>
