<svg xmlns="http://www.w3.org/2000/svg" width="182" height="125" fill="none" viewBox="0 0 182 125">
    <path fill="#3A4850" fill-rule="evenodd"
        d="M134.464 48.263h10.632v1.68a3.07 3.07 0 0 0-.958-.158h-6.112v7.846h5.945a4.73 4.73 0 0 0 1.125-.126v1.671c-.27-.063-.642-.094-1.101-.094h-5.969v8.112h5.93c.324 0 .712-.047 1.14-.149v1.804h-10.617c.08-.298.127-.62.127-.972V49.26c0-.408-.047-.746-.142-.997"
        class="Fill 1" clip-rule="evenodd" />
    <path fill="#3A4850" fill-rule="evenodd"
        d="m132.002 53.606-3.072-.023c-.15-1.71-1.14-3.366-3.317-3.672-4.663-.416-5.977 4.66-5.858 8.371.118 3.577.696 9.077 5.51 9.077 2.018 0 3.958-2.056 3.894-3.79l2.843-.023c-.206 3.578-4.347 5.649-6.318 5.72-6.737.227-9.555-4.221-9.698-10.568-.126-5.75 2.249-10.858 8.906-10.858 5.7.078 6.801 3.42 7.11 5.766"
        class="Fill 3" clip-rule="evenodd" />
    <path fill="#3A4850" fill-rule="evenodd"
        d="m84.09 66.511 2.035-1.686c1.061 1.734 1.932 2.526 4.037 2.526 2.138 0 3.935-1.287 3.935-3.562 0-1.122-.46-2.04-1.37-2.73-.411-.321-1.456-.878-3.103-1.655-2.462-1.17-4.86-2.691-4.86-5.75 0-3.86 3.309-5.563 6.8-5.689 2.066-.078 4.631 1.052 5.668 2.322l-2.066 1.578a4.328 4.328 0 0 0-3.8-2.26c-2.636 0-4.726 3.028-2.541 5.115.554.534 1.686 1.193 3.412 1.977 2.755 1.28 5.106 2.809 5.106 6.19a6.142 6.142 0 0 1-.919 3.256c-1.227 2.008-3.277 3.012-6.143 3.012-3.293 0-3.942-.745-6.19-2.644"
        class="Fill 5" clip-rule="evenodd" />
    <path fill="#3A4850" fill-rule="evenodd"
        d="M55.1 48.263h10.624v1.68a3.065 3.065 0 0 0-.958-.158h-6.111v7.846H64.6c.428 0 .808-.047 1.124-.126v1.671c-.27-.063-.64-.094-1.093-.094h-5.976v8.112h5.93c.324 0 .712-.047 1.14-.149v1.804h-10.61c.071-.298.119-.62.119-.972V49.26c0-.408-.048-.746-.135-.997"
        class="Fill 7" clip-rule="evenodd" />
    <path fill="#3A4850" fill-rule="evenodd"
        d="M36.52 48.263h3.863v.189c0 .172.056.4.15.69L45.98 65.39l5.59-16.317c.087-.275.134-.542.134-.809h1.876c-.19.33-.332.62-.42.88L46.78 68.01c-.063.18-.119.463-.166.84h-3.167a5.263 5.263 0 0 0-.214-.84L36.98 49.29a32.073 32.073 0 0 0-.451-1.028h-.008Z"
        class="Fill 9" clip-rule="evenodd" />
    <path fill="#3A4850" fill-rule="evenodd"
        d="M76.91 57.427c-.672.471-1.48.706-2.406.706H72.92v-8.37h1.417c1.211 0 2.153.297 2.826.894.918.824 1.385 1.938 1.385 3.334 0 1.506-.546 2.652-1.639 3.436Zm.642 1.57c2.533-.495 4.472-2.417 4.472-5.163 0-3.601-3.04-5.57-6.444-5.57h-6.222c.087.313.135.643.135.988v18.609c0 .4-.048.738-.135.989h3.705a3.609 3.609 0 0 1-.135-.99v-8.55l1.188.125 6.206 9.415h3.73l-6.5-9.854Z"
        class="Fill 12" clip-rule="evenodd" />
    <path fill="#3A4850" fill-rule="evenodd"
        d="m102.623 60.886 3.23-9.296 3.317 9.296h-6.547Zm12.746 7.108-6.919-19.048a2.49 2.49 0 0 1-.135-.683h-2.992c0 .244-.04.503-.135.762l-6.705 18.97a3.71 3.71 0 0 1-.42.854h1.932a2.41 2.41 0 0 1 .119-.855l1.986-5.593h7.64l1.964 5.593c.103.306.15.588.15.855h4.006a4.129 4.129 0 0 1-.491-.855Z"
        class="Fill 14" clip-rule="evenodd" />
</svg>
