<svg xmlns="http://www.w3.org/2000/svg" width="181" height="125" fill="none" viewBox="0 0 181 125">
    <path fill="#3A4850" fill-rule="evenodd"
        d="M101.547 47.205a2.816 2.816 0 0 0-1.215-.323h-.013l-16.292.012h-.037a2.721 2.721 0 0 0-1.248.341c-.284.153-1.213.77-1.194 2.289v11.111c.017.247.083.741.33 1.27.295.668 1.001 1.381 2.1 1.381h13.865v-.493a1.237 1.237 0 0 0-.367-.892c-.566-.52-1.315-.548-1.634-.56a1.608 1.608 0 0 1-.109-.005h-6.666l-.59.001-.547.002h-.062l-.198.001c-1.06 0-1.66-.094-1.888-.295-.109-.087-.22-.212-.312-.546-.083-.306-.124-.763-.124-1.358v-3.447l-.001-5.378c-.012-.367.192-.939.397-1.114.262-.254.61-.305 1.085-.306.13 0 .256.004.388.008.137.004.28.008.427.008h9.177c.198 0 .374-.004.53-.008.122-.003.231-.006.33-.006.456.01.604.026.985.294.28.276.364.62.414 1.119l.013 15.242s0 .084-.02.22c-.03.217-.113.52-.263.724-.17.218-.348.347-.756.356l-14.338.028h-.037a3.467 3.467 0 0 0-.995.156c-.303.1-.531.23-.718.41-.245.231-.39.574-.385.918v.493h18.672l.02-.002a3.111 3.111 0 0 0 1.677-.647 2.248 2.248 0 0 0 .855-1.784v-.015l.003-16.911c.016-1.22-.64-1.984-1.259-2.294"
        class="Fill 1" clip-rule="evenodd" />
    <path fill="#3A4850" fill-rule="evenodd"
        d="m146.546 63.243-.087-.544c-.095-.665-.593-1.057-1.028-1.202-.471-.172-.953-.173-1.212-.175l-.163.002h-11.317c-.689-.016-.915-.2-1.056-.396-.151-.213-.18-.558-.177-.81-.001-.063.001-.122.001-.18.002-.05.002-.096.002-.142v-3.498l.001-.035v-.008h9.641l-.009-2.038-.328.003-9.292.052a5.417 5.417 0 0 1-.003-.23l-.004-1.155c-.002-.706-.006-1.566-.006-2.302.014-.872.302-1.182.611-1.387a1.342 1.342 0 0 1 .616-.191l.014-.001h.389l8.255.001h2.582c.379-.001.878-.025 1.374-.193.324-.11.576-.264.77-.468.243-.251.38-.604.375-.968l.016-.304c-.886.012-1.758.003-2.659.002l-4.894-.015c-3.657-.002-7.804.039-8.872.039h-.041c-1.507 0-1.892.864-2.043 1.198-.245.517-.371 1.122-.374 1.8 0 .073.002.127.003.157l.001 10.33v.016c.01.255.068.763.34 1.305.153.32.77 1.368 2.299 1.368h.04l16.212-.004h.027l-.004-.027Z"
        class="Fill 3" clip-rule="evenodd" />
    <path fill="#3A4850" fill-rule="evenodd"
        d="M105.791 62.956c.617.31 1.23.316 1.46.319h15.839c.236-.003.848-.009 1.465-.32.599-.285 1.233-1.001 1.214-2.155l-.007-13.907v-.024h-1.228c-.499.008-1.058.224-1.536.596a2.362 2.362 0 0 0-.932 1.874v11.247c-.003.25-.063.367-.121.45-.094.13-.273.23-.518.287-.219.05-.455.056-.612.056h-11.309c-.233 0-.562-.022-.805-.125a.682.682 0 0 1-.3-.22c-.059-.081-.118-.197-.121-.448V49.339a2.364 2.364 0 0 0-.931-1.874c-.479-.372-1.038-.589-1.535-.596h-1.231v.023l-.006 13.908c-.018 1.154.616 1.87 1.214 2.156"
        class="Fill 6" clip-rule="evenodd" />
    <path fill="#3A4850" fill-rule="evenodd"
        d="M54.43 46.88h-.187l-.048-.001h-.019c-.066-.005-.113-.005-.153-.005-1.09 0-1.827.667-2.254 1.225-.426.55-.728 1.17-.995 1.717-.05.106-.102.209-.15.307.003-.007.01-.01.019-.012l-.004.007c-.033.038-.151.265-.769 1.447l-1.71 3.27-2.59 4.96h-.361v.691l-.007.013-6.744-13.607-.006-.014H34.02l.016.035 7.05 14.207c.364.728.737 1.24 1.173 1.61a2.62 2.62 0 0 0 1.727.646h.116c.754 0 1.337-.152 1.785-.463.468-.325.76-.783 1.016-1.185l.013-.02 5.172-10.259c.18-.337.384-.47.635-.569.24-.09.562-.133 1.013-.133h.026c.14 0 .285.004.433.008l.147.003 1.55.01.493.003v-3.91l-.498.005c-.17.003-1.003.015-1.456.015Z"
        class="Fill 8" clip-rule="evenodd" />
    <path fill="#3A4850" fill-rule="evenodd"
        d="M75.555 59.716c.001.826-.18 1.203-.331 1.374-.18.204-.437.292-.861.296H63.306c-.424-.004-.681-.092-.861-.296-.151-.17-.332-.548-.33-1.374v-9.22c-.002-.826.179-1.203.33-1.375.18-.204.437-.292.861-.296h11.057c.424.004.682.092.86.296.153.17.333.548.332 1.375v9.22Zm1.048-12.84H61.066c-.91 0-1.586.218-2.067.666-.526.495-.791 1.268-.79 2.299v10.53c-.001 1.03.264 1.803.79 2.299.48.448 1.157.666 2.067.666h15.537c.911 0 1.587-.218 2.066-.666.527-.495.793-1.268.79-2.299v-10.53c.003-1.03-.263-1.805-.79-2.299-.48-.448-1.156-.665-2.066-.665Z"
        class="Fill 10" clip-rule="evenodd" />
    <path fill="#3A4850" fill-rule="evenodd"
        d="M145.581 65.946c-.334.031-.578.081-.771.194a.728.728 0 0 0-.349.523c-.01.057-.022.122-.022.194v2.25h1.152v-2.24c0-.019.001-.03.003-.037 0-.034.098-.067.266-.067h.567v-.827h-.629c-.073 0-.146.005-.217.01"
        class="Fill 12" clip-rule="evenodd" />
    <path fill="#3A4850" fill-rule="evenodd"
        d="m127.692 67.905-.749-1.684c-.141-.248-.43-.332-.765-.343-.081.001-.159.014-.223.023-.25.045-.445.127-.541.319l-.758 1.686-.806-1.97h-1.171l.099.242 1.068 2.613c.13.263.427.355.776.363.101 0 .201-.011.296-.028.238-.045.449-.166.547-.385l.72-1.623.704 1.62c.089.217.299.341.535.386.1.019.199.03.301.03.348-.008.646-.1.775-.36l1.168-2.859h-1.171l-.805 1.97Z"
        class="Fill 14" clip-rule="evenodd" />
    <path fill="#3A4850" fill-rule="evenodd"
        d="M132.384 66.935c.005-.09.016-.099.049-.125.037-.027.143-.058.318-.056l1.308-.001c.081 0 .147.004.197.011l-1.872.51v-.34Zm.071 1.312c-.019-.01-.036-.025-.06-.094l3.129-.851v-.471c.002-.294-.17-.544-.428-.684-.258-.144-.6-.21-1.011-.211h-1.191c-.523.001-.919.067-1.208.225a.832.832 0 0 0-.453.764v1.267c-.003.256.144.463.335.605.242.243.816.31 1.139.31h2.87v-.823h-2.817c-.184.003-.279-.02-.305-.037Z"
        class="Fill 16" clip-rule="evenodd" />
    <path fill="#3A4850" fill-rule="evenodd"
        d="M105.364 66.935c.005-.09.016-.099.049-.125.038-.027.142-.058.318-.056l1.308-.001c.081 0 .147.004.198.011l-1.873.51v-.34Zm.071 1.312c-.019-.01-.036-.025-.06-.094l3.128-.851v-.471c.005-.294-.169-.544-.427-.684-.257-.144-.601-.21-1.01-.211h-1.193c-.522.001-.918.067-1.208.225a.831.831 0 0 0-.452.764v1.267c-.003.256.142.462.335.605l.001.001c.295.224.655.31 1.138.31h2.869v-.824h-2.816c-.184.003-.28-.02-.305-.037Z"
        class="Fill 18" clip-rule="evenodd" />
    <path fill="#3A4850" fill-rule="evenodd"
        d="M140.953 68.17c-.032.059-.037.06-.083.08-.054.02-.182.036-.399.034h-1.085c-.217.002-.345-.013-.4-.034-.048-.021-.052-.021-.083-.078v-.179a.15.15 0 0 1 .085-.083.978.978 0 0 1 .319-.054h1.262c.154.01.255.03.303.053.042.023.054.033.081.084v.177Zm1.127-1.587-.005-.012c-.179-.471-.657-.642-1.301-.636h-3.022v.817l3.074.011c.078.003.095.012.127.035v.235l-1.799.001c-.397 0-.737.08-.993.256a.933.933 0 0 0-.409.8v.085c-.004.294.166.546.419.697.253.153.591.231.991.235h1.606c.431 0 .821-.127 1.113-.41a.655.655 0 0 0 .223-.484v-1.455c0-.066-.013-.119-.022-.161l-.002-.014Z"
        class="Fill 20" clip-rule="evenodd" />
    <path fill="#3A4850" fill-rule="evenodd"
        d="M113.657 68.166c-.007.056.001.04-.039.07-.043.024-.159.05-.337.049h-1.245a.76.76 0 0 1-.311-.047c-.052-.028-.063-.044-.081-.094l-.009-.007h.007v-2.2h-1.151v2.307c-.004.268.165.493.423.642.265.154.566.223.909.222h1.832c-.003.028-.008.027-.024.041-.02.019-.089.045-.204.056h-2.936v.824h2.879c.452-.001.832-.097 1.101-.294a.772.772 0 0 0 .337-.679v-3.12h-1.151v2.23Z"
        class="Fill 22" clip-rule="evenodd" />
    <path fill="#3A4850" fill-rule="evenodd"
        d="M118.064 66.935c.005-.09.016-.099.049-.126.038-.026.143-.057.319-.055h1.307c.081-.001.148.003.198.01l-1.873.51v-.34Zm.072 1.312c-.02-.01-.036-.025-.06-.094l3.128-.851v-.471c.004-.294-.169-.544-.428-.684-.258-.144-.6-.21-1.01-.211h-1.192c-.522.001-.918.067-1.208.225a.83.83 0 0 0-.452.764v1.267c-.004.256.144.463.334.605l.001.001c.296.224.655.31 1.139.31h2.869v-.824h-2.817c-.183.003-.279-.02-.304-.037Z"
        class="Fill 25" clip-rule="evenodd" />
</svg>
