<svg xmlns="http://www.w3.org/2000/svg" width="182" height="125" fill="none" viewBox="0 0 182 125">
    <path fill="#3A4850" fill-rule="evenodd"
        d="M53.203 53.46c2.511 0 4.642 1.68 5.392 4.011h-2.057c-.639-1.224-1.892-2.056-3.334-2.056-2.09 0-3.784 1.747-3.784 3.902 0 2.156 1.694 3.903 3.783 3.903 1.402 0 2.625-.786 3.28-1.954h2.078c-.78 2.277-2.884 3.91-5.358 3.91-3.136 0-5.679-2.623-5.679-5.859 0-3.235 2.543-5.858 5.68-5.858Zm-22.409 3.42 3.087 8.162h1.941l2.898-8.075v8.075h1.92V53.665h-2.688l-3.143 8.047-3.041-8.047h-2.893v11.377h1.919V56.88Zm12.655 8.162h1.91V53.665h-1.91v11.377Zm24.547-4.837v4.837h1.925V53.665h-1.925V58.3H62.3v-4.634h-1.925v11.376H62.3v-4.837h5.697Zm11.415 2 1.105 2.837h2.042l-4.481-11.377h-2.075l-4.48 11.377h2.058l1.089-2.838h4.742Zm-2.364-6.415 1.719 4.526H75.33l1.718-4.526Zm7.257-2.124v11.376h8.094v-1.888h-6.024v-2.932h5.637v-1.905h-5.637v-2.764h5.973v-1.887h-8.043Zm10.554 0v11.376h7.176v-1.888h-5.092v-9.489h-2.084Zm18.583 5.916-1.698 1.62v3.84h-1.903V53.665h1.903v5.067l4.768-5.066h2.461l-4.303 4.605 5.113 6.77h-2.529l-3.812-5.46Zm14.27 5.08a5.497 5.497 0 0 0 1.826-1.255 6.277 6.277 0 0 0 1.233-1.857c.304-.703.448-1.456.448-2.275a5.77 5.77 0 0 0-.464-2.275 6.166 6.166 0 0 0-1.233-1.874 5.481 5.481 0 0 0-1.826-1.254 5.687 5.687 0 0 0-2.258-.452c-.801 0-1.554.15-2.258.452a5.481 5.481 0 0 0-1.826 1.254A6.13 6.13 0 0 0 120.12 57a5.772 5.772 0 0 0-.465 2.275c0 .82.145 1.589.449 2.292a6.26 6.26 0 0 0 1.233 1.856 5.467 5.467 0 0 0 1.826 1.255c1.413.604 3.136.587 4.548-.017Zm-2.29-1.473c-.513 0-.993-.1-1.441-.3a3.778 3.778 0 0 1-1.186-.837 3.851 3.851 0 0 1-.8-1.255 4.058 4.058 0 0 1-.289-1.522c0-.536.096-1.037.289-1.522.192-.486.464-.904.8-1.255a3.782 3.782 0 0 1 1.186-.836 3.478 3.478 0 0 1 1.441-.301 3.66 3.66 0 0 1 2.658 1.137c.337.351.609.77.801 1.255.192.485.288.986.288 1.522 0 .535-.096 1.037-.288 1.522a3.837 3.837 0 0 1-.801 1.255 3.656 3.656 0 0 1-2.658 1.137Zm10.544-7.72h3.375c.233 0 .436.05.622.151.187.101.342.253.467.438.125.186.218.388.28.607.062.22.093.455.093.691 0 .236-.031.472-.093.708a2.1 2.1 0 0 1-.28.64c-.125.186-.28.337-.467.455a1.198 1.198 0 0 1-.653.186h-3.36l.016-3.877Zm2.957 5.78 2.175 3.742h2.311l-2.599-4.093c1.361-.955 1.906-1.79 1.906-3.592a4.34 4.34 0 0 0-.217-1.332 3.945 3.945 0 0 0-.607-1.18 2.823 2.823 0 0 0-.98-.825 2.876 2.876 0 0 0-1.338-.303h-5.552v11.376h1.913V61.3l2.988-.05Zm5.806 2.047c1.652 1.198 2.845 1.746 4.932 1.746 1.014 0 1.993-.165 2.746-.644 1.097-.696 1.735-1.96 1.467-3.555-.202-1.205-1.167-2.024-2.843-2.307-.65-.11-2.161-.212-3.054-.693-.953-.514-1.049-1.589-.337-2.116 1.169-.866 4.029.14 5.087.825l.804-1.609a5.497 5.497 0 0 0-1.132-.657c-.41-.18-.82-.312-1.229-.41-.41-.099-.82-.181-1.214-.23a8.61 8.61 0 0 0-1.066-.066c-.606 0-1.147.082-1.623.246-1.057.365-1.769 1.262-1.984 2.359-.383 1.962.732 3.026 2.114 3.526 1.194.433 2.567.392 3.601.767.992.36 1.255 1.68.483 2.368-.295.263-.787.394-1.476.394-1.957 0-2.668-.608-4.164-1.52l-1.112 1.576Z"
        class="Fill 1" clip-rule="evenodd" />
</svg>
